<svg xmlns="http://www.w3.org/2000/svg" viewBox="0 0 64 64" fill="none">
  <!-- Brick wall pattern -->
  <!-- Row 1 -->
  <rect x="4" y="8" width="18" height="10" rx="1" fill="#1a56db" opacity="0.25" stroke="#1a56db" stroke-width="1.5"/>
  <rect x="24" y="8" width="18" height="10" rx="1" fill="#1a56db" opacity="0.3" stroke="#1a56db" stroke-width="1.5"/>
  <rect x="44" y="8" width="16" height="10" rx="1" fill="#1a56db" opacity="0.2" stroke="#1a56db" stroke-width="1.5"/>
  <!-- Row 2 (offset) -->
  <rect x="4" y="21" width="8" height="10" rx="1" fill="#1a56db" opacity="0.2" stroke="#1a56db" stroke-width="1.5"/>
  <rect x="14" y="21" width="18" height="10" rx="1" fill="#1a56db" opacity="0.3" stroke="#1a56db" stroke-width="1.5"/>
  <rect x="34" y="21" width="18" height="10" rx="1" fill="#1a56db" opacity="0.25" stroke="#1a56db" stroke-width="1.5"/>
  <rect x="54" y="21" width="6" height="10" rx="1" fill="#1a56db" opacity="0.2" stroke="#1a56db" stroke-width="1.5"/>
  <!-- Row 3 -->
  <rect x="4" y="34" width="18" height="10" rx="1" fill="#1a56db" opacity="0.3" stroke="#1a56db" stroke-width="1.5"/>
  <rect x="24" y="34" width="18" height="10" rx="1" fill="#1a56db" opacity="0.2" stroke="#1a56db" stroke-width="1.5"/>
  <rect x="44" y="34" width="16" height="10" rx="1" fill="#1a56db" opacity="0.25" stroke="#1a56db" stroke-width="1.5"/>
  <!-- Row 4 (offset) -->
  <rect x="4" y="47" width="8" height="10" rx="1" fill="#1a56db" opacity="0.25" stroke="#1a56db" stroke-width="1.5"/>
  <rect x="14" y="47" width="18" height="10" rx="1" fill="#1a56db" opacity="0.2" stroke="#1a56db" stroke-width="1.5"/>
  <rect x="34" y="47" width="18" height="10" rx="1" fill="#1a56db" opacity="0.3" stroke="#1a56db" stroke-width="1.5"/>
  <rect x="54" y="47" width="6" height="10" rx="1" fill="#1a56db" opacity="0.25" stroke="#1a56db" stroke-width="1.5"/>
</svg>
