<svg xmlns="http://www.w3.org/2000/svg" viewBox="0 0 64 64" fill="none">
  <!-- Concrete mixer truck -->
  <ellipse cx="28" cy="30" rx="14" ry="12" fill="#1a56db" opacity="0.15"/>
  <path d="M18 22c0-2 1-4 4-5l12-3c3-1 6 1 7 4l3 10c1 3-1 6-4 7l-8 2" stroke="#1a56db" stroke-width="2.5" stroke-linecap="round" fill="none"/>
  <path d="M14 35h30c2 0 3 1 3 3v6c0 2-1 3-3 3H14c-2 0-3-1-3-3v-6c0-2 1-3 3-3z" fill="#1a56db" opacity="0.2" stroke="#1a56db" stroke-width="2"/>
  <circle cx="18" cy="50" r="4" fill="#fff" stroke="#1a56db" stroke-width="2.5"/>
  <circle cx="40" cy="50" r="4" fill="#fff" stroke="#1a56db" stroke-width="2.5"/>
  <path d="M38 28l4 7" stroke="#1a56db" stroke-width="2" stroke-linecap="round"/>
  <path d="M11 44h2M45 44h4" stroke="#1a56db" stroke-width="2" stroke-linecap="round"/>
</svg>
