<svg xmlns="http://www.w3.org/2000/svg" viewBox="0 0 64 64" fill="none">
  <!-- Wall studs -->
  <rect x="6" y="4" width="4" height="56" fill="#1a56db" opacity="0.15" stroke="#1a56db" stroke-width="1.5"/>
  <rect x="30" y="4" width="4" height="56" fill="#1a56db" opacity="0.15" stroke="#1a56db" stroke-width="1.5"/>
  <rect x="54" y="4" width="4" height="56" fill="#1a56db" opacity="0.15" stroke="#1a56db" stroke-width="1.5"/>
  <!-- Insulation batts between studs -->
  <!-- Left batt -->
  <path d="M10 6c3 2 5 4 3 8s-4 5-2 9 5 4 3 8-4 5-2 9 5 4 3 8-4 5-2 9" stroke="#1a56db" stroke-width="1.5" opacity="0.4"/>
  <path d="M16 6c3 2 5 4 3 8s-4 5-2 9 5 4 3 8-4 5-2 9 5 4 3 8-4 5-2 9" stroke="#1a56db" stroke-width="1.5" opacity="0.3"/>
  <path d="M22 6c3 2 5 4 3 8s-4 5-2 9 5 4 3 8-4 5-2 9 5 4 3 8-4 5-2 9" stroke="#1a56db" stroke-width="1.5" opacity="0.4"/>
  <rect x="10" y="6" width="20" height="52" rx="1" fill="#1a56db" opacity="0.08"/>
  <!-- Right batt -->
  <path d="M34 6c3 2 5 4 3 8s-4 5-2 9 5 4 3 8-4 5-2 9 5 4 3 8-4 5-2 9" stroke="#1a56db" stroke-width="1.5" opacity="0.4"/>
  <path d="M40 6c3 2 5 4 3 8s-4 5-2 9 5 4 3 8-4 5-2 9 5 4 3 8-4 5-2 9" stroke="#1a56db" stroke-width="1.5" opacity="0.3"/>
  <path d="M46 6c3 2 5 4 3 8s-4 5-2 9 5 4 3 8-4 5-2 9 5 4 3 8-4 5-2 9" stroke="#1a56db" stroke-width="1.5" opacity="0.4"/>
  <rect x="34" y="6" width="20" height="52" rx="1" fill="#1a56db" opacity="0.08"/>
</svg>
