<svg xmlns="http://www.w3.org/2000/svg" viewBox="0 0 64 64" fill="none">
  <!-- Rolled up sod/grass carpet -->
  <!-- The roll (spiral) -->
  <circle cx="22" cy="32" r="14" fill="#1a56db" opacity="0.1" stroke="#1a56db" stroke-width="2"/>
  <circle cx="22" cy="32" r="9" fill="#fff" stroke="#1a56db" stroke-width="1.5" opacity="0.6"/>
  <circle cx="22" cy="32" r="4" fill="#1a56db" opacity="0.15" stroke="#1a56db" stroke-width="1.5"/>
  <!-- Unrolled part (flat grass strip) -->
  <path d="M22 46c4 0 10 2 20 2h14" stroke="#1a56db" stroke-width="2.5" stroke-linecap="round"/>
  <path d="M22 46c4 0 10 2 20 2h14v4H42c-10 0-16-2-20-2" stroke="#1a56db" stroke-width="1.5" fill="#1a56db" opacity="0.15"/>
  <!-- Grass blades on the unrolled part -->
  <path d="M34 46v-4M38 48v-4M42 48v-3M46 48v-4M50 48v-3M54 48v-4" stroke="#1a56db" stroke-width="1.5" stroke-linecap="round" opacity="0.4"/>
  <!-- Grass blades on the roll top -->
  <path d="M14 18v-3M18 17v-4M22 17v-3M26 17v-4M30 18v-3" stroke="#1a56db" stroke-width="1.5" stroke-linecap="round" opacity="0.4"/>
</svg>
